<?xml version="1.0" standalone="no"?>
<!DOCTYPE svg PUBLIC "-//W3C//DTD SVG 20010904//EN"
 "http://www.w3.org/TR/2001/REC-SVG-20010904/DTD/svg10.dtd">
<svg version="1.0" xmlns="http://www.w3.org/2000/svg"
 width="1758.000000pt" height="1758.000000pt" viewBox="0 0 1758.000000 1758.000000"
 preserveAspectRatio="xMidYMid meet">
<metadata>
Created by potrace 1.11, written by Peter Selinger 2001-2013
</metadata>
<g transform="translate(0.000000,1758.000000) scale(0.100000,-0.100000)"
fill="#000000" stroke="none">
<path d="M1323 11273 c-35 -8 -63 -18 -63 -22 0 -4 9 -34 20 -66 11 -32 20
-62 20 -66 0 -7 -83 -49 -96 -49 -2 0 -20 29 -40 64 l-37 64 -46 -33 c-25 -19
-66 -55 -91 -80 l-45 -47 34 -26 c19 -15 46 -36 59 -47 l24 -21 -29 -46 -29
-46 -68 34 -67 35 -19 -43 c-22 -51 -55 -177 -47 -184 2 -3 27 -7 53 -10 95
-9 94 -8 94 -69 0 -54 0 -55 -30 -56 -16 -1 -34 -3 -40 -4 -5 -1 -26 -3 -46
-4 l-35 -1 7 -46 c6 -40 48 -171 58 -181 2 -2 33 10 71 27 64 29 85 31 85 9 0
-5 10 -23 22 -39 l21 -29 -29 -23 c-16 -13 -42 -35 -58 -49 l-29 -26 29 -33
c25 -28 103 -91 140 -113 6 -3 27 22 48 58 l37 64 47 -22 c26 -12 49 -23 51
-24 1 -1 -7 -31 -19 -67 -12 -36 -19 -70 -16 -74 8 -14 59 -23 194 -36 l32 -3
0 78 0 79 33 0 c17 0 42 3 53 6 19 5 23 -1 39 -65 11 -45 22 -71 31 -71 20 0
111 38 160 66 49 29 49 34 -7 105 -16 20 -29 41 -28 45 0 5 19 24 40 43 l40
34 54 -53 c30 -30 56 -52 58 -49 1 2 19 24 38 49 20 25 48 69 63 98 25 48 25
53 9 59 -60 22 -124 54 -120 60 3 5 10 28 17 52 l11 43 42 -7 c105 -18 104
-18 111 7 15 59 2 219 -18 213 -6 -2 -29 -7 -50 -10 -21 -3 -49 -8 -62 -11
-19 -5 -24 -1 -29 23 -4 15 -11 39 -16 52 -5 13 -8 25 -7 26 2 2 32 15 68 30
36 15 67 29 69 31 12 11 -114 197 -130 192 -4 -2 -30 -24 -56 -49 l-49 -47
-43 38 -43 39 41 57 c47 66 46 70 -32 107 -50 25 -140 58 -143 54 -1 -1 -9
-34 -19 -74 -10 -44 -21 -70 -28 -68 -7 3 -30 6 -52 8 l-40 4 0 77 0 77 -55
-2 c-30 -1 -83 -9 -117 -16z m252 -305 c22 -5 61 -23 88 -40 229 -146 230
-473 1 -622 -54 -35 -96 -47 -176 -51 -111 -6 -201 28 -275 103 -180 181 -130
475 100 590 76 38 163 44 262 20z"/>
<path d="M2570 10970 c0 -76 3 -141 8 -143 4 -3 46 -8 94 -11 314 -22 609
-159 838 -389 246 -247 381 -574 382 -929 0 -64 -3 -129 -6 -145 -3 -15 -8
-48 -11 -73 -45 -339 -275 -689 -588 -894 -101 -66 -295 -152 -383 -170 -124
-25 -195 -36 -259 -38 -72 -3 -75 -4 -76 -28 0 -14 -1 -78 -2 -143 l-2 -117
30 -1 c125 -3 1593 -5 1602 -1 9 3 12 325 13 1410 1 774 2 1497 2 1607 l0 200
-821 2 -821 3 0 -140z"/>
<path d="M4701 10938 c-97 -14 -169 -67 -212 -155 l-24 -48 0 -1345 0 -1345
22 -41 c36 -67 70 -101 131 -131 l57 -28 1150 1 c1072 0 1155 1 1229 18 198
45 369 194 444 386 43 110 55 179 55 325 1 77 -2 169 -6 205 -22 204 -112 409
-242 552 -41 45 -156 144 -190 164 -18 10 -17 14 21 75 81 131 142 304 160
457 12 96 10 293 -2 368 -42 243 -218 437 -469 513 -38 12 -99 24 -134 28 -97
8 -1930 9 -1990 1z m1984 -574 c21 -10 38 -27 44 -46 16 -44 6 -262 -14 -328
-47 -156 -169 -266 -330 -300 -44 -10 -203 -13 -597 -13 -296 -1 -538 -3 -539
-6 -1 -4 -2 -129 -3 -280 0 -175 3 -275 9 -277 6 -2 316 -5 690 -7 374 -2 687
-5 695 -8 72 -24 100 -35 130 -52 142 -79 219 -225 221 -422 2 -146 1 -152
-29 -186 l-29 -32 -934 -1 c-514 -1 -944 1 -956 3 l-23 3 0 984 1 984 815 0
c723 0 820 -2 849 -16z"/>
<path d="M8294 10939 c-126 -12 -224 -87 -253 -197 -8 -29 -12 -362 -12 -1130
0 -599 2 -1095 5 -1103 3 -8 8 -32 11 -54 29 -203 182 -410 380 -513 67 -35
105 -49 205 -74 84 -21 100 -21 1148 -22 l1062 -1 0 281 0 281 -1039 0 c-963
-1 -1042 1 -1085 17 -54 21 -101 71 -115 123 -7 25 -11 340 -11 936 l0 897
1125 0 1125 0 -2 281 -3 282 -1235 1 c-679 0 -1267 -2 -1306 -5z"/>
<path d="M12109 10939 c-52 -4 -105 -10 -117 -13 -12 -4 -34 -9 -49 -12 -39
-7 -134 -40 -195 -68 -164 -74 -334 -245 -412 -417 -103 -225 -104 -573 -1
-804 95 -217 309 -403 537 -469 152 -44 171 -45 918 -45 487 -1 728 -5 755
-12 166 -46 255 -185 242 -378 -10 -165 -98 -270 -257 -309 -8 -1 -517 -4
-1130 -5 l-1115 -2 0 -280 0 -280 1105 1 c608 0 1132 3 1165 7 228 25 479 158
610 325 82 104 155 270 171 387 3 28 8 59 10 70 10 50 4 238 -10 315 -63 347
-310 601 -678 697 l-103 27 -735 2 c-800 2 -787 1 -870 59 -81 56 -122 144
-126 271 -8 206 81 329 269 372 4 1 450 2 992 2 l985 0 0 280 c0 260 -1 280
-17 281 -119 4 -1873 2 -1944 -2z"/>
<path d="M14573 10942 l-33 -3 0 -280 0 -279 620 0 620 0 2 -1267 3 -1268 278
0 c240 0 277 2 278 15 0 8 1 579 1 1268 l1 1252 619 0 618 0 -2 281 -3 281
-1485 2 c-817 0 -1500 0 -1517 -2z"/>
<path d="M2865 10410 c-42 -128 -45 -131 -102 -109 -15 5 -50 12 -78 15 -27 3
-65 6 -82 9 l-33 3 0 -239 c0 -221 1 -239 18 -240 108 -5 217 -69 277 -163
134 -213 7 -499 -237 -534 l-53 -7 -3 -239 -2 -239 72 7 c40 3 95 13 122 21
28 8 53 12 57 8 4 -5 24 -60 45 -124 l38 -117 55 22 c31 12 79 34 108 49 l52
27 -65 106 c-35 58 -64 109 -64 114 0 4 19 20 43 35 23 16 72 57 109 93 61 58
69 63 85 51 10 -8 55 -44 100 -81 l81 -68 34 48 c50 69 90 140 85 149 -3 4
-55 33 -115 63 l-109 54 23 53 c21 46 38 107 59 206 5 23 9 27 33 23 15 -3 54
-8 87 -11 33 -4 76 -8 96 -11 47 -6 50 3 48 129 l-1 98 -77 -7 c-42 -4 -101
-8 -131 -8 l-54 -1 -7 35 c-16 89 -22 108 -45 165 -13 34 -24 65 -24 68 0 4
50 32 110 62 61 30 110 59 110 65 0 12 -49 95 -88 148 l-29 41 -84 -65 c-46
-35 -92 -71 -101 -79 -15 -12 -24 -6 -86 53 -38 37 -88 78 -110 92 -50 30 -50
30 28 159 l58 96 -46 25 c-48 26 -149 70 -161 70 -4 0 -25 -54 -46 -120z"/>
<path d="M982 9874 c-63 -11 -89 -17 -159 -39 -8 -3 0 -40 28 -122 42 -126 45
-143 28 -143 -7 0 -46 -16 -87 -36 -59 -29 -76 -33 -83 -22 -5 7 -34 57 -66
111 -31 53 -61 97 -66 97 -35 0 -274 -202 -307 -260 -6 -12 14 -34 91 -95 54
-44 99 -83 99 -86 0 -4 -20 -36 -44 -72 -24 -36 -46 -71 -48 -79 -4 -9 -36 2
-122 45 -64 31 -118 57 -121 57 -12 0 -87 -188 -84 -210 0 -3 -5 -18 -11 -34
-6 -16 -13 -45 -16 -65 -2 -20 -7 -50 -9 -67 -3 -21 0 -31 8 -31 12 1 174 -15
190 -19 4 -1 19 -2 35 -3 l27 -1 1 -100 c0 -64 -3 -100 -10 -101 -6 -1 -22 -2
-36 -4 -14 -1 -61 -6 -105 -9 -108 -10 -116 -13 -110 -39 2 -12 6 -40 9 -62
11 -85 89 -314 108 -315 4 0 59 25 123 56 64 31 117 55 119 53 1 -2 17 -29 34
-60 18 -31 39 -62 47 -69 23 -19 18 -34 -22 -66 -20 -16 -64 -51 -97 -77 -34
-27 -62 -52 -64 -56 -5 -15 169 -179 243 -230 l73 -51 16 25 c9 13 16 26 16
29 0 3 96 163 105 174 4 5 175 -79 175 -86 0 -7 -62 -194 -75 -224 -5 -13 0
-20 21 -29 69 -26 227 -51 334 -53 l55 0 0 134 0 134 45 3 c25 2 67 8 93 14
26 6 49 10 51 8 3 -4 53 -193 61 -233 3 -10 6 -20 8 -23 6 -6 177 57 239 88
31 16 77 42 102 58 l46 29 -75 107 c-73 103 -84 125 -67 125 5 0 36 25 70 56
71 64 57 67 175 -41 42 -38 82 -70 89 -70 34 0 242 326 221 346 -5 4 -59 28
-121 54 -101 43 -113 50 -108 69 3 12 15 55 27 98 21 75 22 76 48 67 22 -7
100 -22 178 -34 12 -2 26 -6 31 -9 5 -3 16 2 23 11 11 12 14 61 14 209 0 106
-3 195 -6 198 -3 3 -55 -3 -115 -14 -128 -23 -153 -24 -158 -7 -2 6 -14 47
-26 89 -13 43 -22 79 -19 81 2 2 57 25 122 52 64 26 117 50 117 52 0 2 -16 36
-36 76 -39 76 -114 189 -162 245 l-29 33 -59 -55 c-32 -29 -77 -70 -99 -89
l-40 -35 -40 36 c-22 21 -55 49 -73 64 l-33 28 75 107 76 108 -23 17 c-48 37
-173 99 -266 132 l-97 34 -33 -126 c-18 -70 -34 -128 -36 -130 -1 -2 -45 3
-96 11 l-94 13 3 133 4 132 -89 -2 c-48 -1 -121 -8 -161 -15z m349 -539 c140
-35 227 -82 319 -175 152 -151 215 -345 185 -568 -11 -85 -54 -186 -116 -277
-124 -182 -377 -293 -601 -264 -229 30 -410 156 -509 354 -168 339 -19 747
328 894 38 16 86 32 107 35 22 4 42 8 44 10 10 10 194 3 243 -9z"/>
<path d="M8814 9393 l0 -283 888 0 888 0 -2 283 -3 282 -885 0 -885 1 -1 -283z"/>
<path d="M6940 7352 l-35 -30 0 -508 0 -509 95 0 95 0 0 368 c0 202 2 367 5
367 3 0 73 -70 155 -156 83 -87 170 -178 195 -204 25 -26 117 -122 205 -214
88 -92 170 -169 182 -172 39 -10 87 5 108 34 19 26 20 45 20 529 0 330 -3 504
-10 506 -5 2 -48 3 -95 3 l-85 -1 -3 -374 -2 -375 -36 40 c-48 52 -408 426
-564 587 -146 149 -169 160 -230 109z"/>
<path d="M815 7358 c-199 -25 -347 -142 -422 -333 l-27 -70 -4 -326 -4 -326
94 0 c51 0 95 3 98 7 3 5 4 63 4 129 -1 83 2 121 10 122 15 1 637 1 654 0 9
-1 12 -34 12 -129 l0 -128 94 -1 94 -1 4 27 c1 14 3 236 2 494 -1 348 -4 473
-13 490 -26 48 -40 51 -296 52 -132 0 -267 -3 -300 -7z m413 -395 l-3 -208
-325 0 c-179 -1 -331 1 -337 3 -15 5 -11 136 6 190 32 108 116 183 236 212 17
5 119 8 228 9 l197 1 -2 -207z"/>
<path d="M1849 7353 c-95 -24 -142 -63 -180 -148 -22 -49 -23 -59 -24 -460 0
-225 1 -417 3 -426 3 -14 19 -17 98 -16 l94 0 -1 291 c-1 565 -2 533 23 556
22 20 31 21 288 18 261 -3 265 -3 296 -27 49 -36 69 -90 68 -185 -1 -91 -16
-132 -61 -164 -47 -33 -71 -36 -298 -37 -121 0 -225 -3 -230 -7 -6 -4 -10 -44
-10 -95 l1 -88 235 -1 c303 -1 367 14 460 107 66 66 91 134 95 261 3 114 -9
181 -46 253 -41 81 -131 150 -220 170 -60 14 -536 12 -591 -2z"/>
<path d="M3110 7362 c-64 -8 -121 -35 -165 -80 -74 -75 -75 -83 -75 -562 l0
-417 95 0 c90 -1 95 0 96 21 0 11 1 197 2 412 2 373 3 393 21 413 20 22 25 22
287 19 254 -3 269 -4 296 -24 54 -40 68 -79 68 -184 0 -111 -15 -145 -79 -181
-39 -22 -50 -23 -278 -23 l-238 -1 0 -97 0 -96 253 2 c211 2 260 6 301 20 106
38 179 107 213 201 27 73 31 245 7 325 -38 131 -133 221 -258 247 -31 6 -500
11 -546 5z"/>
<path d="M4104 7363 c-15 -5 -10 -982 5 -1011 25 -47 46 -49 519 -49 367 0
442 2 443 13 0 8 0 34 0 59 0 25 0 62 0 83 l-1 37 -387 0 -388 0 -5 434 -5
435 -86 1 c-47 1 -89 0 -95 -2z"/>
<path d="M5219 7315 c0 -27 0 -266 -1 -530 l0 -480 96 -1 96 -2 0 529 c0 291
-3 530 -7 530 -5 1 -47 2 -95 3 l-88 1 -1 -50z"/>
<path d="M6075 7362 c-184 -27 -334 -133 -407 -287 -50 -107 -54 -146 -53
-485 l0 -285 95 0 95 0 1 117 c1 64 4 122 6 130 4 10 68 13 329 11 178 -1 329
-2 334 -2 6 -1 10 -47 9 -119 0 -64 2 -122 4 -128 2 -7 36 -11 96 -11 l93 0
-1 496 c-1 379 -4 501 -14 518 -25 44 -44 47 -312 48 -140 0 -264 -1 -275 -3z
m410 -387 c0 -104 -1 -197 -3 -205 -3 -13 -47 -15 -332 -15 -181 0 -332 4
-337 8 -10 10 -5 131 7 177 13 50 62 123 104 156 20 16 62 39 93 51 53 20 74
21 263 20 l205 -2 0 -190z"/>
<path d="M8393 7358 c-89 -15 -156 -67 -195 -153 -22 -49 -22 -58 -22 -375 1
-305 2 -328 21 -371 26 -57 68 -100 130 -130 48 -23 51 -23 431 -25 l383 -2
-3 97 -3 96 -350 1 c-192 1 -358 2 -367 3 -10 0 -25 12 -34 26 -13 21 -16 60
-16 262 1 362 0 341 22 363 19 19 33 20 385 20 l365 0 0 98 0 97 -353 0 c-195
0 -372 -3 -394 -7z"/>
<path d="M9400 7360 c-35 -7 -55 -21 -69 -48 -16 -30 -17 -764 -1 -822 17 -63
68 -121 135 -155 l60 -30 380 0 379 0 1 88 c0 49 -4 92 -10 95 -5 4 -165 7
-355 7 -190 1 -354 4 -366 8 -40 14 -44 43 -44 362 l0 305 385 0 c301 0 385 3
386 13 4 47 3 170 -1 175 -6 8 -841 10 -880 2z"/>
<path d="M11020 7354 c-55 -23 -54 -19 -55 -555 l0 -496 95 1 95 1 2 415 c1
228 2 423 2 433 1 16 24 17 331 17 304 0 330 -1 338 -17 14 -30 6 -186 -11
-220 -20 -39 -59 -70 -102 -82 -18 -5 -130 -8 -249 -8 -119 0 -219 -3 -223 -7
-5 -4 -8 -48 -8 -97 l-1 -89 71 0 c75 0 64 5 170 -88 33 -30 157 -136 194
-167 13 -11 33 -29 45 -40 53 -50 52 -50 209 -51 l151 -1 -30 25 c-16 14 -105
91 -198 171 l-169 146 55 11 c105 21 199 83 246 163 37 62 49 132 47 256 -2
156 -31 216 -130 268 -39 20 -54 21 -443 22 -293 0 -411 -3 -432 -11z"/>
<path d="M12293 7362 c-34 -5 -73 -50 -74 -86 -6 -229 1 -759 11 -795 16 -59
98 -141 160 -161 35 -11 126 -15 417 -16 l372 -1 3 89 c2 50 1 93 -2 97 -3 4
-158 6 -345 6 -187 -1 -353 3 -370 7 -55 15 -55 16 -55 355 l0 313 384 0 384
0 3 28 c2 15 2 59 -1 97 l-5 70 -430 0 c-236 0 -440 -1 -452 -3z"/>
<path d="M13573 7355 c-65 -15 -104 -37 -142 -80 -64 -74 -64 -68 -65 -530 -1
-231 -1 -425 2 -431 2 -8 35 -12 97 -12 l93 0 1 372 c0 204 0 390 0 413 1 30
7 48 23 63 22 20 33 21 281 20 297 -1 308 -4 348 -87 31 -65 32 -195 0 -246
-45 -73 -75 -80 -346 -83 -115 0 -215 -2 -220 -3 -7 0 -11 -37 -10 -93 l0 -93
235 -1 c304 -1 365 13 460 107 68 67 92 133 95 262 4 155 -22 242 -96 322 -45
49 -109 87 -169 100 -55 13 -532 12 -587 0z"/>
<path d="M14992 7353 c-154 -29 -295 -133 -361 -268 -54 -112 -59 -156 -58
-485 l2 -295 95 0 95 0 0 122 c0 67 3 125 7 129 9 8 655 10 664 2 3 -3 5 -62
6 -131 l1 -124 96 1 96 1 0 480 c1 264 -3 493 -7 508 -9 37 -43 67 -77 68
-141 7 -504 2 -559 -8z m449 -200 c4 -138 -1 -387 -9 -392 -6 -3 -158 -6 -338
-6 l-328 0 -1 55 c-3 177 65 284 211 335 64 23 83 25 267 25 181 0 197 -1 198
-17z"/>
<path d="M15861 6834 l0 -530 97 0 97 1 0 515 c0 283 -1 522 -3 530 -3 13 -21
16 -97 15 l-94 0 0 -531z"/>
<path d="M16325 7351 c-47 -29 -48 -43 -48 -550 0 -263 3 -483 6 -488 4 -6 47
-10 97 -11 l90 0 0 434 0 434 329 0 c253 0 332 -3 338 -12 4 -7 9 -51 10 -98
2 -108 -18 -155 -80 -191 -41 -23 -48 -24 -275 -26 -129 -1 -236 -3 -238 -5
-4 -4 -7 -105 -5 -160 1 -28 2 -28 69 -28 l69 0 198 -172 198 -173 149 -1 c81
-1 148 0 148 1 0 1 -88 78 -196 171 l-195 169 60 12 c74 15 129 42 181 89 86
78 110 153 107 329 -2 103 -5 126 -25 163 -29 57 -48 75 -102 103 -45 23 -46
23 -453 24 -342 0 -412 -2 -432 -14z"/>
<path d="M9590 6836 c0 -66 4 -95 13 -98 6 -2 143 -3 302 -3 l290 1 0 94 0 95
-302 3 -303 2 0 -94z"/>
<path d="M12488 6923 c-3 -7 -2 -127 1 -173 1 -13 41 -15 296 -14 162 0 298 4
302 8 4 4 8 48 8 97 l1 89 -302 0 c-167 0 -304 -3 -306 -7z"/>
</g>
</svg>
